<?xml version="1.0" encoding="UTF-8" standalone="no"?>
<!-- Created with Inkscape (http://www.inkscape.org/) -->

<svg
   xmlns:dc="http://purl.org/dc/elements/1.1/"
   xmlns:cc="http://creativecommons.org/ns#"
   xmlns:rdf="http://www.w3.org/1999/02/22-rdf-syntax-ns#"
   xmlns:svg="http://www.w3.org/2000/svg"
   xmlns="http://www.w3.org/2000/svg"
   xmlns:sodipodi="http://sodipodi.sourceforge.net/DTD/sodipodi-0.dtd"
   xmlns:inkscape="http://www.inkscape.org/namespaces/inkscape"
   width="240mm"
   height="134mm"
   viewBox="0 0 240 134"
   version="1.1"
   id="svg8"
   inkscape:version="0.92.2 (5c3e80d, 2017-08-06)"
   sodipodi:docname="404.svg">
  <defs
     id="defs2" />
  <sodipodi:namedview
     id="base"
     pagecolor="#ffffff"
     bordercolor="#666666"
     borderopacity="1.0"
     inkscape:pageopacity="0.0"
     inkscape:pageshadow="2"
     inkscape:zoom="1.4142136"
     inkscape:cx="858.00376"
     inkscape:cy="187.10665"
     inkscape:document-units="mm"
     inkscape:current-layer="g2401"
     showgrid="false"
     inkscape:window-width="3440"
     inkscape:window-height="1377"
     inkscape:window-x="-8"
     inkscape:window-y="-8"
     inkscape:window-maximized="1" />
  <metadata
     id="metadata5">
    <rdf:RDF>
      <cc:Work
         rdf:about="">
        <dc:format>image/svg+xml</dc:format>
        <dc:type
           rdf:resource="http://purl.org/dc/dcmitype/StillImage" />
        <dc:title></dc:title>
      </cc:Work>
    </rdf:RDF>
  </metadata>
  <g
     inkscape:groupmode="layer"
     id="layer2"
     inkscape:label="Layer 0"
     transform="translate(0,-66)">
    <path
       style="fill:#ffffff;stroke:#e3e3e3;stroke-width:0.25393552px;stroke-linecap:butt;stroke-linejoin:miter;stroke-opacity:1"
       d="m 101.18822,76.526723 c -7.787451,0.3129 -8.839195,8.196613 -7.701661,10.745553 -9.484426,5.34626 -6.938641,8.834974 -3.668149,15.116794 -11.257707,4.53471 -9.338599,12.42885 -4.906923,17.43689 -7.998465,7.55474 -2.296898,9.4615 0.380597,12.60026 -6.412674,8.28611 -2.256965,13.04252 0.936177,18.09907 -1.673101,5.45295 -3.922109,10.92285 4.89015,16.70036 -4.122906,10.17003 2.256708,9.52377 6.001527,10.54556 -4.955543,5.34912 3.846232,14.67081 10.130382,12.35941 2.41517,1.78859 2.12774,6.55064 10.00597,5.36268 3.50638,3.17894 13.40845,6.67459 18.25201,0.72675 2.9163,0.74255 7.74904,0.37711 9.52892,-7.06747 3.99111,-0.50457 10.33223,-0.0961 9.39875,-14.49439 7.68601,-14.09374 1.8707,-15.36947 1.88623,-20.93526 3.70767,-9.06777 3.4961,-19.46765 -1.29965,-25.76763 2.9509,-8.30135 4.93136,-13.17113 -2.32179,-21.79342 1.74655,-5.46462 3.59198,-11.000575 -4.35815,-15.487163 0.55073,-5.13164 2.52862,-10.786812 -9.31198,-11.730202 -1.20632,-6.47528 -5.97142,-9.287529 -13.17488,-9.414449 -3.65203,-1.44694 -6.18814,-4.55066 -14.04905,0 -7.55705,-0.91399 -9.94282,3.863377 -10.61848,6.996657 z"
       id="path850"
       inkscape:connector-curvature="0"
       sodipodi:nodetypes="ccccccccccccccccccccc"
       inkscape:label="path850" />
    <path
       style="fill:#ffffff;stroke:#d7d7d7;stroke-width:0.25393552px;stroke-linecap:butt;stroke-linejoin:miter;stroke-opacity:1"
       d="m 101.29158,76.648679 c -7.787451,0.3129 -8.782345,8.1284 -7.644811,10.67734 -9.484429,5.346261 -6.914671,8.851389 -3.644182,15.133211 -11.257714,4.53471 -9.341536,12.36746 -4.90986,17.3755 -7.998465,7.55474 -2.313798,9.44962 0.363697,12.58839 -6.412674,8.28611 -2.283908,13.02808 0.909234,18.08463 -1.673101,5.45295 -3.902406,10.88871 4.909863,16.66622 -4.122906,10.17003 2.331118,9.51757 6.075937,10.53936 -4.955543,5.34912 3.633312,14.58813 9.917462,12.27673 2.41517,1.78859 2.13252,6.56258 10.01076,5.37462 3.50638,3.17894 13.34122,6.65705 18.18478,0.70921 2.9163,0.74255 7.68911,0.40634 9.46899,-7.03824 3.99111,-0.50457 10.30889,-0.006 9.37541,-14.40433 7.68601,-14.09375 1.87068,-15.36637 1.88622,-20.93216 3.70767,-9.06777 3.48438,-19.42488 -1.31137,-25.72485 2.9509,-8.30136 4.92757,-13.16947 -2.32558,-21.79176 1.74655,-5.46462 3.58579,-10.93856 -4.36435,-15.42515 0.55074,-5.131641 2.56638,-10.758411 -9.27423,-11.701801 -1.20631,-6.47528 -5.88958,-9.26999 -13.09303,-9.39691 -3.65203,-1.44694 -6.14136,-4.55066 -14.00228,0 -7.55704,-0.91399 -9.857,3.85671 -10.53266,6.98999 z"
       id="path850-4"
       inkscape:connector-curvature="0"
       sodipodi:nodetypes="ccccccccccccccccccccc" />
    <path
       style="fill:none;stroke:#e3e3e3;stroke-width:0.26458332px;stroke-linecap:butt;stroke-linejoin:miter;stroke-opacity:1"
       d="m 113.66742,103.06827 c 5.79642,6.12074 9.88989,5.51079 13.56105,0.0877 -0.86176,7.79453 2.79832,11.19088 9.02506,12.86166 -3.82048,7.98164 -11.92431,15.86974 -0.0731,23.85135 -4.47453,2.35382 -11.72625,-1.93699 -9.79835,12.23452 -1.8341,-3.1104 -7.26538,-9.09862 -11.79612,0.0236 1.07939,-9.1622 -3.47606,-10.52 -9.05785,-10.61227 6.63432,-9.58938 10.85046,-18.40904 -0.14882,-24.68904 6.34804,-1.19421 10.93379,-3.76749 8.28811,-13.75755 z"
       id="path854"
       inkscape:connector-curvature="0"
       sodipodi:nodetypes="cccccccccc" />
    <path
       style="fill:none;stroke:#d7d7d7;stroke-width:0.26458332px;stroke-linecap:butt;stroke-linejoin:miter;stroke-opacity:1"
       d="m 113.41602,102.57132 c 5.98664,6.56169 10.50364,5.77516 14.02292,0 -1.06399,7.93609 2.66675,11.7624 8.99583,13.36153 -3.82048,7.98165 -11.85123,15.96329 0,23.9449 -4.90718,2.63464 -12.13687,-1.69021 -9.78958,13.09688 -1.41056,-3.51741 -7.86266,-10.28744 -12.30312,0 1.39626,-9.72568 -3.32771,-11.29107 -9.26042,-11.24479 6.80548,-9.65162 11.17258,-18.83435 -0.13229,-25.00323 6.37422,-0.89318 11.17153,-3.48457 8.46666,-14.15529 z"
       id="path854-3"
       inkscape:connector-curvature="0"
       sodipodi:nodetypes="ccccccccc" />
  </g>
  <g
     inkscape:label="FirstFour"
     inkscape:groupmode="layer"
     id="layer1"
     transform="translate(0,-163)">
    <path
       id="path834"
       style="opacity:1;fill:#ffffff;fill-opacity:1;stroke:#e3e3e3;stroke-width:0.26499999;stroke-linecap:butt;stroke-linejoin:miter;stroke-miterlimit:4;stroke-dasharray:none;stroke-opacity:1"
       d="m 56.123096,191.69262 c -4.735238,21.12031 -15.378189,31.15672 -29.421206,46.00305 12.143323,-1.96876 19.188267,-6.26702 32.679197,0.1864 -7.13996,-14.63387 -1.838206,-32.82396 -3.257991,-46.18945 z"
       inkscape:connector-curvature="0"
       sodipodi:nodetypes="cccc" />
    <path
       id="path832"
       style="opacity:0.99299999;fill:#ffffff;fill-opacity:1;stroke:#e3e3e3;stroke-width:0.26458332px;stroke-linecap:butt;stroke-linejoin:miter;stroke-opacity:1"
       d="m 3.2808379,245.27092 c 3.0318272,-13.00065 4.5642516,-25.86852 23.7872581,-40.24714 -2.819548,-14.17325 0.569671,-26.43805 19.742015,-33.51714 8.087208,-5.26238 16.659609,-7.42667 25.454708,0.40796 7.901435,11.47566 6.229154,22.78698 0.276687,33.90741 12.266031,16.94617 3.914239,26.90676 0.0562,38.81414 4.060989,-3.92616 12.442111,-5.9063 23.786555,0.20924 3.678039,4.08118 1.471774,7.57582 0.0186,10.97284 -7.781085,4.57517 -15.60227,2.89693 -23.735015,0.0873 10.48717,13.35279 3.284282,25.31897 -0.461517,37.65512 -6.696578,2.95753 -13.395728,5.62623 -20.609083,-0.18075 -3.907016,-12.74848 -9.078776,-25.59444 0.171271,-38.04803 -16.427295,1.46309 -33.438278,7.78598 -48.5646011,-0.50819 -3.93907848,-3.58681 -2.31772847,-6.6697 0.07691,-9.55276 z"
       inkscape:connector-curvature="0"
       sodipodi:nodetypes="ccccccccccccccc" />
    <path
       style="opacity:0.99299999;fill:none;stroke:#d7d7d7;stroke-width:0.26458332px;stroke-linecap:butt;stroke-linejoin:miter;stroke-opacity:1"
       d="m 3.4017629,245.33086 c 3.0318272,-13.00065 4.5894893,-25.87584 23.8124961,-40.25446 -2.819548,-14.17325 0.482419,-26.37181 19.654763,-33.4509 8.087208,-5.26238 16.340248,-7.45665 25.135347,0.37798 7.901435,11.47566 6.330444,22.70844 0.37798,33.82887 12.266031,16.94617 3.763529,27.40214 -0.0945,39.30952 3.796409,-4.07499 12.656898,-6.30453 24.001345,-0.18899 3.678039,4.08118 1.566831,7.46833 0.113667,10.86535 -7.781085,4.57517 -15.982267,2.62214 -24.115012,-0.18752 10.48717,13.35279 3.556809,25.46147 -0.18899,37.79762 -6.594575,2.86058 -13.291079,5.44327 -20.410652,-0.18899 -3.840871,-12.79809 -8.872071,-25.62751 0.377976,-38.0811 -16.427295,1.46309 -33.519925,7.9162 -48.6462481,-0.37797 -3.93907881,-3.58681 -2.4128128,-6.56635 -0.01817,-9.44941 z"
       id="path815"
       inkscape:connector-curvature="0"
       sodipodi:nodetypes="ccccccccccccccc" />
    <path
       style="opacity:1;fill:none;stroke:#d7d7d7;stroke-width:0.26499999;stroke-linecap:butt;stroke-linejoin:miter;stroke-miterlimit:4;stroke-dasharray:none;stroke-opacity:1"
       d="m 56.234029,190.68132 c -4.483219,21.0258 -15.616091,32.24759 -29.905981,47.1865 12.143323,-1.96876 19.825765,-6.18651 33.316695,0.26727 -6.678798,-13.67091 -2.412436,-26.89921 -3.410714,-47.45377 z"
       id="path817"
       inkscape:connector-curvature="0"
       sodipodi:nodetypes="cccc" />
  </g>
  <g
     transform="translate(0,-163)"
     id="g2401"
     inkscape:groupmode="layer"
     inkscape:label="SecondFour">
    <path
       sodipodi:nodetypes="cccc"
       inkscape:connector-curvature="0"
       d="m 197.56213,191.69262 c -4.73524,21.12031 -15.37819,31.15672 -29.42121,46.00305 12.14333,-1.96876 19.18827,-6.26702 32.6792,0.1864 -7.13996,-14.63387 -1.83821,-32.82396 -3.25799,-46.18945 z"
       style="opacity:1;fill:#ffffff;fill-opacity:1;stroke:#e3e3e3;stroke-width:0.26499999;stroke-linecap:butt;stroke-linejoin:miter;stroke-miterlimit:4;stroke-dasharray:none;stroke-opacity:1"
       id="path2393" />
    <path
       sodipodi:nodetypes="ccccccccccccccc"
       inkscape:connector-curvature="0"
       d="m 144.71987,245.27092 c 3.03183,-13.00065 4.56425,-25.86852 23.78726,-40.24714 -2.81955,-14.17325 0.56967,-26.43805 19.74201,-33.51714 8.08721,-5.26238 16.65961,-7.42667 25.45471,0.40796 7.90144,11.47566 6.22916,22.78698 0.27669,33.90741 12.26603,16.94617 3.91424,26.90676 0.0562,38.81414 4.06099,-3.92616 12.44211,-5.9063 23.78655,0.20924 3.67804,4.08118 1.47178,7.57582 0.0186,10.97284 -7.78108,4.57517 -15.60227,2.89693 -23.73501,0.0873 10.48717,13.35279 3.28428,25.31897 -0.46152,37.65512 -6.69658,2.95753 -13.39573,5.62623 -20.60908,-0.18075 -3.90702,-12.74848 -9.07878,-25.59444 0.17127,-38.04803 -16.42729,1.46309 -33.43828,7.78598 -48.5646,-0.50819 -3.93908,-3.58681 -2.31773,-6.6697 0.0769,-9.55276 z"
       style="opacity:0.99299999;fill:#ffffff;fill-opacity:1;stroke:#e3e3e3;stroke-width:0.26458332px;stroke-linecap:butt;stroke-linejoin:miter;stroke-opacity:1"
       id="path2395" />
    <path
       sodipodi:nodetypes="ccccccccccccccc"
       inkscape:connector-curvature="0"
       id="path2397"
       d="m 144.8408,245.33086 c 3.03182,-13.00065 4.58949,-25.87584 23.81249,-40.25446 -2.81955,-14.17325 0.48242,-26.37181 19.65477,-33.4509 8.0872,-5.26238 16.34024,-7.45665 25.13534,0.37798 7.90144,11.47566 6.33045,22.70844 0.37798,33.82887 12.26603,16.94617 3.76353,27.40214 -0.0945,39.30952 3.79641,-4.07499 12.6569,-6.30453 24.00135,-0.18899 3.67804,4.08118 1.56683,7.46833 0.11366,10.86535 -7.78108,4.57517 -15.98226,2.62214 -24.11501,-0.18752 10.48717,13.35279 3.55681,25.46147 -0.18899,37.79762 -6.59457,2.86058 -13.29108,5.44327 -20.41065,-0.18899 -3.84087,-12.79809 -8.87207,-25.62751 0.37798,-38.0811 -16.4273,1.46309 -33.51993,7.9162 -48.64625,-0.37797 -3.93908,-3.58681 -2.41281,-6.56635 -0.0182,-9.44941 z"
       style="opacity:0.99299999;fill:none;stroke:#d7d7d7;stroke-width:0.26458332px;stroke-linecap:butt;stroke-linejoin:miter;stroke-opacity:1" />
    <path
       sodipodi:nodetypes="cccc"
       inkscape:connector-curvature="0"
       id="path2399"
       d="m 197.67306,190.68132 c -4.48322,21.0258 -15.61609,32.24759 -29.90598,47.1865 12.14332,-1.96876 19.82577,-6.18651 33.3167,0.26727 -6.6788,-13.67091 -2.41244,-26.89921 -3.41072,-47.45377 z"
       style="opacity:1;fill:none;stroke:#d7d7d7;stroke-width:0.26499999;stroke-linecap:butt;stroke-linejoin:miter;stroke-miterlimit:4;stroke-dasharray:none;stroke-opacity:1" />
  </g>
</svg>
