<?xml version="1.0" encoding="UTF-8" standalone="no"?>
<!-- Created with Inkscape (http://www.inkscape.org/) -->

<svg
   xmlns="http://www.w3.org/2000/svg"
   viewBox="0 0 268 134">
  <g
     id="layer2"
     transform="translate(0,-66)">
    <path
       style="fill:none;fill-opacity:1;stroke:#a4a4a4;stroke-width:0.26574251px;stroke-linecap:butt;stroke-linejoin:miter;stroke-opacity:1"
       d="m 111.9206,75.803686 c -7.78746,0.315647 -8.83921,8.268591 -7.70167,10.839915 -9.484427,5.393207 -6.938637,8.912558 -3.66815,15.249539 -11.257707,4.57453 -9.338597,12.53799 -4.906917,17.59001 -7.99847,7.62108 -2.2969,9.54459 0.38059,12.71091 -6.41267,8.35887 -2.25696,13.15706 0.93618,18.258 -1.6731,5.50084 -3.92211,11.01877 4.890147,16.84701 -4.122907,10.25935 2.25671,9.60741 6.00154,10.63817 -4.95556,5.3961 3.84623,14.79964 10.13038,12.46794 2.41517,1.80431 2.12774,6.60817 10.00597,5.40978 3.50638,3.20686 13.40845,6.7332 18.25201,0.73313 2.9163,0.74907 7.74904,0.38042 9.52892,-7.12953 3.99111,-0.509 10.33223,-0.097 9.39875,-14.62168 7.68601,-14.21749 1.8707,-15.50443 1.88623,-21.11909 3.70767,-9.1474 3.4961,-19.63861 -1.29965,-25.99391 2.9509,-8.37425 4.93136,-13.28679 -2.32179,-21.98479 1.74655,-5.51261 3.59198,-11.097184 -4.35815,-15.623171 0.55073,-5.176703 2.52862,-10.881535 -9.31198,-11.83321 -1.20632,-6.532142 -5.97142,-9.369087 -13.17488,-9.497121 -3.65203,-1.459646 -6.18814,-4.590621 -14.04905,0 -7.55705,-0.922016 -9.94282,3.897303 -10.61848,7.058098 z"
       id="path864" />
    <path
       id="path873"
       style="fill:#ffffff;fill-opacity:1;stroke:#d4d4d4;stroke-width:0.26574251px;stroke-linecap:butt;stroke-linejoin:miter;stroke-opacity:1"
       d="m 124.14839,102.07699 c 5.98664,6.61931 10.50364,5.82587 14.02292,0 -1.06399,8.00578 2.66675,11.86569 8.99583,13.47886 -3.82048,8.05174 -11.85122,16.10347 0,24.15518 -4.90718,2.65777 -12.13686,-1.70506 -9.78958,13.21188 -1.41056,-3.5483 -7.86265,-10.37777 -12.30311,0 1.39626,-9.81109 -3.32771,-11.39022 -9.26043,-11.34353 6.80548,-9.73638 11.17259,-18.99974 -0.13229,-25.2228 6.37422,-0.90102 11.17153,-3.51517 8.46666,-14.27959 z M 112.02396,75.926713 c -7.78746,0.315648 -8.78236,8.199779 -7.64482,10.771102 -9.484427,5.393209 -6.914667,8.929117 -3.64418,15.266105 -11.257717,4.57453 -9.341537,12.47607 -4.909857,17.52807 -7.99847,7.62109 -2.3138,9.53261 0.36369,12.69894 -6.41267,8.35888 -2.2839,13.14248 0.90924,18.24344 -1.6731,5.50084 -3.90241,10.98434 4.909857,16.81258 -4.122907,10.25934 2.33112,9.60114 6.07594,10.63191 -4.95555,5.39609 3.63331,14.71623 9.91747,12.38453 2.41516,1.80431 2.13252,6.62021 10.01076,5.42182 3.50638,3.20686 13.34121,6.71551 18.18477,0.71544 2.9163,0.74907 7.68911,0.4099 9.46899,-7.10005 3.99111,-0.509 10.30889,-0.006 9.37541,-14.53082 7.68601,-14.21751 1.87068,-15.5013 1.88622,-21.11597 3.70767,-9.14741 3.48438,-19.59547 -1.31137,-25.95075 2.9509,-8.37426 4.92757,-13.28512 -2.32558,-21.98312 1.74655,-5.51261 3.58579,-11.034623 -4.36435,-15.560611 0.55074,-5.176705 2.56638,-10.852885 -9.27423,-11.804561 -1.20631,-6.532141 -5.88958,-9.351393 -13.09303,-9.479428 -3.65203,-1.459646 -6.14136,-4.590621 -14.00228,0 -7.55704,-0.922016 -9.857,3.890578 -10.53265,7.051373 z" />
    <path
       style="fill:none;stroke:#c1c1c1;stroke-width:0.26574251px;stroke-linecap:butt;stroke-linejoin:miter;stroke-opacity:1"
       d="m 124.3998,102.57831 c 5.79642,6.17449 9.88989,5.55918 13.56104,0.0885 -0.86176,7.86298 2.79832,11.28915 9.02506,12.97461 -3.82048,8.05173 -11.9243,16.00909 -0.0731,24.0608 -4.47453,2.37448 -11.72624,-1.954 -9.79835,12.34196 -1.8341,-3.13772 -7.26537,-9.17853 -11.79612,0.0239 1.07939,-9.24265 -3.47605,-10.61238 -9.05785,-10.70546 6.63432,-9.67359 10.85046,-18.5707 -0.14882,-24.90585 6.34804,-1.20469 10.93379,-3.80057 8.28811,-13.87835 z"
       id="path875" />
  </g>
  <g
     id="layer1"
     transform="translate(0,-163)">
    <path
       style="fill:none;stroke:#a9a9a9;stroke-width:0.26423988px;stroke-linecap:butt;stroke-linejoin:miter;stroke-opacity:1"
       d="m 54.644723,168.67288 c 3.972594,-8.51845 16.660555,-6.1314 18.500127,0.99407 6.394529,4.06142 12.465743,8.2839 0.221083,15.09953 12.337222,7.52808 6.1466,11.24222 0.07662,14.99676 9.009873,4.50442 9.600023,8.9623 0.34115,14.8602 5.888532,0.005 10.415408,7.87811 1.039653,11.69442 5.187758,-1.66231 10.345447,-3.5442 14.068979,3.19612 7.103415,-5.96402 13.693035,-3.87518 15.530735,0.96663 13.56081,3.37583 4.68944,13.69686 0.0662,14.63312 -1.97848,6.44701 -10.687932,6.50603 -15.709803,0.18839 -5.736577,7.07726 -12.678686,1.32316 -14.948249,0.16064 4.308453,2.62108 8.445358,9.24602 -0.161235,15.61116 12.972823,4.11806 4.6195,13.67552 0.864106,13.94529 12.660424,3.02961 4.582763,15.53438 -1.080749,15.52562 -1.405931,10.37081 -19.221033,6.45014 -19.112821,-0.20776 -4.544849,-1.08549 -12.679503,-7.63964 -0.435745,-12.62116 -4.992109,-0.25908 -12.126833,-11.95971 -0.0042,-17.56423 -9.543429,-5.69147 -2.564167,-10.19894 -0.05847,-15.22535 -3.029518,5.96621 -9.666527,9.56319 -14.32189,-0.34988 -4.46672,4.66092 -7.704215,9.35159 -15.610415,-0.39584 -5.891507,7.75789 -14.8098284,7.57928 -17.2973071,-1.05193 -10.9281759,-2.11513 -5.1001461,-13.2897 -0.8756013,-14.49534 -1.9910045,-7.58293 0.1934648,-17.95418 11.8083774,-15.48145 -4.9573,-16.08154 6.647585,-16.15621 11.96745,-15.32804 -6.535508,-11.30827 3.121883,-17.33437 11.75424,-15.52362 -2.997359,-5.72416 -0.281336,-17.24055 13.377796,-13.62735 z"
       id="path835" />
    <path
       style="fill:none;stroke:#a9a9a9;stroke-width:0.35281524px;stroke-linecap:butt;stroke-linejoin:miter;stroke-opacity:1"
       d="m 53.320156,192.82247 c -2.575937,6.485 -3.601888,11.73926 -13.408385,16.8339 2.212749,11.37778 -5.146815,13.92026 -12.856119,17.71268 6.138141,-2.97088 10.530474,-4.41361 16.252127,-0.0649 5.869835,-4.63059 11.639518,-3.56503 16.696462,-0.5664 -6.955718,-6.22119 -5.106995,-13.25523 -2.922855,-17.3737 -4.097995,-5.29453 -6.285827,-9.34729 -3.76123,-16.54158 z"
       id="path888-8" />
    <path
       id="path888"
       style="fill:#ffffff;stroke:#d4d4d4;stroke-width:0.35281521px;stroke-linecap:butt;stroke-linejoin:miter;stroke-opacity:1"
       d="m 53.750105,191.25559 c -2.508231,6.4657 -4.031252,13.1027 -14.060502,18.26082 2.351407,11.55066 -6.241097,14.60568 -14.060502,18.26084 6.179725,-2.98219 12.22484,-4.59143 17.678678,-0.16987 6.05087,-4.84522 12.368997,-3.40657 17.678677,-0.16986 -7.447033,-6.00653 -6.077111,-13.85066 -3.618175,-18.09096 -4.38389,-5.3428 -6.536213,-11.16839 -3.618176,-18.09097 z m 1.018641,-22.28995 c 3.753136,-8.46511 16.415377,-6.33447 18.25625,0.79169 6.394529,4.06142 12.310809,8.19352 0.06615,15.00915 12.453821,7.52808 6.191004,11.25458 0.06615,15.00914 9.172863,4.50442 9.597043,9.11121 0.06615,15.00912 6.5267,-0.0741 10.948157,8.02044 0.595318,11.97433 5.196046,-1.77806 11.313152,-4.00684 15.015104,3.03481 7.103414,-5.96401 13.640422,-4.05011 15.478122,0.7917 13.56081,3.37582 4.68944,13.44611 0.0662,14.38237 -1.97848,6.447 -10.588546,6.38357 -15.610417,0.0659 -5.579563,7.3657 -13.485196,0.9489 -15.610417,-0.0659 4.411112,2.43091 9.167037,9.47566 0.198432,16.16369 13.125305,3.92175 4.680641,13.8248 0.429945,13.88757 13.277282,2.6552 5.26831,15.28371 -0.496099,15.33901 -1.405929,10.37082 -18.893626,6.52595 -18.785414,-0.13194 -4.633071,-1.10102 -12.643143,-7.68986 0,-12.60109 -5.151059,0.15776 -12.745664,-11.7205 -0.264583,-17.45018 -9.77047,-5.51535 -2.528229,-10.82291 0,-15.8668 -2.918246,6.13155 -9.725615,10.28747 -14.684375,0 -4.46672,4.66092 -7.704214,9.35159 -15.610415,-0.39584 -5.891507,7.75789 -14.7104377,7.70756 -17.1979167,-0.92364 -10.928176,-2.11514 -5.018295,-13.04477 -0.79375,-14.25043 -1.997229,-7.59094 0.212659,-17.94105 11.9062497,-15.372 -5.24928,-16.08153 6.540728,-16.20017 11.906249,-15.37199 -7.673688,-13.60647 6.735389,-17.35664 11.90625,-15.372 -3.476078,-5.49621 -0.467997,-17.71267 13.096817,-13.65667 z" />
  </g>
  <g
     transform="translate(0,-163)"
     id="g913">
    <path
       id="path907"
       d="m 210.65938,168.5665 c 3.9726,-8.51845 16.66056,-6.1314 18.50013,0.99407 6.39453,4.06142 12.46574,8.2839 0.22108,15.09953 12.33722,7.52808 6.1466,11.24222 0.0766,14.99676 9.00988,4.50442 9.60003,8.9623 0.34115,14.8602 5.88853,0.005 10.41541,7.87811 1.03966,11.69442 5.18775,-1.66231 10.34544,-3.5442 14.06897,3.19612 7.10342,-5.96402 13.69304,-3.87518 15.53074,0.96663 13.56081,3.37583 4.68944,13.69686 0.0662,14.63312 -1.97848,6.44701 -10.68793,6.50603 -15.7098,0.18839 -5.73658,7.07726 -12.67869,1.32316 -14.94825,0.16064 4.30845,2.62108 8.44536,9.24602 -0.16124,15.61116 12.97283,4.11806 4.6195,13.67552 0.86411,13.94529 12.66042,3.02961 4.58276,15.53438 -1.08075,15.52562 -1.40593,10.37081 -19.22103,6.45014 -19.11282,-0.20776 -4.54485,-1.08549 -12.6795,-7.63964 -0.43575,-12.62116 -4.99211,-0.25908 -12.12683,-11.95971 -0.004,-17.56423 -9.54343,-5.69147 -2.56416,-10.19894 -0.0585,-15.22535 -3.02951,5.96621 -9.66652,9.56319 -14.32189,-0.34988 -4.46672,4.66092 -7.70421,9.35159 -15.61041,-0.39584 -5.89151,7.75789 -14.80983,7.57928 -17.29731,-1.05193 -10.92817,-2.11513 -5.10014,-13.2897 -0.8756,-14.49534 -1.991,-7.58293 0.19347,-17.95418 11.80838,-15.48145 -4.9573,-16.08154 6.64758,-16.15621 11.96745,-15.32804 -6.53551,-11.30827 3.12188,-17.33437 11.75424,-15.52362 -2.99736,-5.72416 -0.28134,-17.24055 13.37779,-13.62735 z"
       style="fill:none;stroke:#a9a9a9;stroke-width:0.26423988px;stroke-linecap:butt;stroke-linejoin:miter;stroke-opacity:1" />
    <path
       id="path909"
       d="m 209.33482,192.71609 c -2.57594,6.485 -3.60189,11.73926 -13.40839,16.8339 2.21275,11.37778 -5.14681,13.92026 -12.85612,17.71268 6.13814,-2.97088 10.53048,-4.41361 16.25213,-0.0649 5.86983,-4.63059 11.63952,-3.56503 16.69646,-0.5664 -6.95572,-6.22119 -5.10699,-13.25523 -2.92285,-17.3737 -4.098,-5.29453 -6.28583,-9.34729 -3.76123,-16.54158 z"
       style="fill:none;stroke:#a9a9a9;stroke-width:0.35281524px;stroke-linecap:butt;stroke-linejoin:miter;stroke-opacity:1" />
    <path
       d="m 209.76476,191.14921 c -2.50823,6.4657 -4.03125,13.1027 -14.0605,18.26082 2.35141,11.55066 -6.24109,14.60568 -14.0605,18.26084 6.17973,-2.98219 12.22484,-4.59143 17.67868,-0.16987 6.05087,-4.84522 12.369,-3.40657 17.67868,-0.16986 -7.44704,-6.00653 -6.07712,-13.85066 -3.61818,-18.09096 -4.38389,-5.3428 -6.53621,-11.16839 -3.61818,-18.09097 z m 1.01865,-22.28995 c 3.75313,-8.46511 16.41537,-6.33447 18.25625,0.79169 6.39452,4.06142 12.3108,8.19352 0.0662,15.00915 12.45382,7.52808 6.191,11.25458 0.0661,15.00914 9.17286,4.50442 9.59704,9.11121 0.0661,15.00912 6.5267,-0.0741 10.94815,8.02044 0.59531,11.97433 5.19605,-1.77806 11.31316,-4.00684 15.01511,3.03481 7.10341,-5.96401 13.64042,-4.05011 15.47812,0.7917 13.56081,3.37582 4.68944,13.44611 0.0662,14.38237 -1.97848,6.447 -10.58855,6.38357 -15.61042,0.0659 -5.57956,7.3657 -13.48519,0.9489 -15.61041,-0.0659 4.41111,2.43091 9.16703,9.47566 0.19843,16.16369 13.1253,3.92175 4.68064,13.8248 0.42994,13.88757 13.27728,2.6552 5.26831,15.28371 -0.4961,15.33901 -1.40593,10.37082 -18.89362,6.52595 -18.78541,-0.13194 -4.63307,-1.10102 -12.64314,-7.68986 0,-12.60109 -5.15106,0.15776 -12.74566,-11.7205 -0.26458,-17.45018 -9.77047,-5.51535 -2.52823,-10.82291 0,-15.8668 -2.91825,6.13155 -9.72562,10.28747 -14.68438,0 -4.46672,4.66092 -7.70421,9.35159 -15.61041,-0.39584 -5.89151,7.75789 -14.71044,7.70756 -17.19792,-0.92364 -10.92818,-2.11514 -5.0183,-13.04477 -0.79375,-14.25043 -1.99723,-7.59094 0.21266,-17.94105 11.90625,-15.372 -5.24928,-16.08153 6.54073,-16.20017 11.90625,-15.37199 -7.67369,-13.60647 6.73539,-17.35664 11.90625,-15.372 -3.47608,-5.49621 -0.468,-17.71267 13.09682,-13.65667 z"
       style="fill:#ffffff;stroke:#d4d4d4;stroke-width:0.35281521px;stroke-linecap:butt;stroke-linejoin:miter;stroke-opacity:1"
       id="path911" />
  </g>
</svg>
