<?xml version="1.0" encoding="UTF-8" standalone="no"?>
<svg
   xmlns:dc="http://purl.org/dc/elements/1.1/"
   xmlns:cc="http://creativecommons.org/ns#"
   xmlns:rdf="http://www.w3.org/1999/02/22-rdf-syntax-ns#"
   xmlns:svg="http://www.w3.org/2000/svg"
   xmlns="http://www.w3.org/2000/svg"
   xmlns:sodipodi="http://sodipodi.sourceforge.net/DTD/sodipodi-0.dtd"
   xmlns:inkscape="http://www.inkscape.org/namespaces/inkscape"
   viewBox="0 0 200 100"
   version="1.1"
   id="svg1502"
   sodipodi:docname="cloud-shadow-grey.svg"
   inkscape:version="0.92.2 (5c3e80d, 2017-08-06)">
  <metadata
     id="metadata1508">
    <rdf:RDF>
      <cc:Work
         rdf:about="">
        <dc:format>image/svg+xml</dc:format>
        <dc:type
           rdf:resource="http://purl.org/dc/dcmitype/StillImage" />
        <dc:title></dc:title>
      </cc:Work>
    </rdf:RDF>
  </metadata>
  <defs
     id="defs1506" />
  <sodipodi:namedview
     pagecolor="#ffffff"
     bordercolor="#666666"
     borderopacity="1"
     objecttolerance="10"
     gridtolerance="10"
     guidetolerance="10"
     inkscape:pageopacity="0"
     inkscape:pageshadow="2"
     inkscape:window-width="3440"
     inkscape:window-height="1377"
     id="namedview1504"
     showgrid="false"
     inkscape:zoom="8.032733"
     inkscape:cx="128.49238"
     inkscape:cy="74.533546"
     inkscape:window-x="-8"
     inkscape:window-y="-8"
     inkscape:window-maximized="1"
     inkscape:current-layer="g1500" />
  <g
     transform="translate(0,-197)"
     id="g1500">
    <path
       style="opacity:1;fill:#d7d7d7;fill-opacity:1;stroke:#000000;stroke-width:0.07283004;stroke-miterlimit:4;stroke-dasharray:none;stroke-opacity:0"
       d="m 116.70907,203.00271 c -12.04291,0.006 -23.142252,6.1185 -29.020237,15.98198 -4.090899,-2.52965 -8.884362,-3.88106 -13.7873,-3.88702 -13.530354,0.0136 -24.608544,10.07382 -25.033156,22.73271 h -0.768178 c -0.03718,-0.002 -0.07436,-0.004 -0.111599,-0.006 -0.05269,0.002 -0.105254,0.004 -0.15787,0.006 h -0.462593 v 0.0162 c -13.683849,0.33535 -24.603831,11.48128 -24.611628,25.12089 -3.3e-5,13.88603 11.296778,25.14292 25.232091,25.14287 0.300995,-0.005 0.601871,-0.0159 0.902489,-0.0318 h 99.653301 c 0.0889,0.005 0.17746,0.009 0.26621,0.0132 13.93527,6e-5 26.81601,-11.78263 26.81605,-25.66861 -0.008,-13.52264 -12.33309,-24.09068 -25.89463,-24.58441 0.15672,-1.19986 0.23907,-2.4072 0.2466,-3.61601 -4e-5,-17.24236 -14.89532,-31.22006 -33.26955,-31.22008 z"
       id="path6703-8-1-2"
       inkscape:connector-curvature="0" />
    <path
       style="opacity:1;fill:#e5e5e5;fill-opacity:1;stroke:#000000;stroke-width:0.07243547;stroke-miterlimit:4;stroke-dasharray:none;stroke-opacity:0"
       d="m 116.66629,203.33898 c -11.9962,0.006 -23.052464,6.07595 -28.907647,15.87084 -4.07503,-2.51205 -8.849901,-3.85407 -13.733821,-3.85999 -13.47787,0.0135 -24.513087,10.00376 -24.936051,22.57462 h -0.765198 c -0.03703,-0.002 -0.07408,-0.004 -0.111167,-0.006 -0.05248,0.002 -0.104845,0.004 -0.157258,0.006 H 47.59435 v 0.0162 c -13.63077,0.33301 -24.508394,11.40144 -24.51616,24.94618 -3.3e-5,13.78947 11.252959,24.96807 25.134216,24.96802 0.299828,-0.005 0.599537,-0.0158 0.898988,-0.0316 h 99.266726 c 0.0886,0.005 0.17678,0.009 0.26519,0.0131 13.8812,6e-5 26.71198,-11.70069 26.71202,-25.49011 -0.008,-13.4286 -12.28525,-23.92314 -25.79419,-24.41344 0.15611,-1.19152 0.23815,-2.39047 0.24565,-3.59086 -4e-5,-17.12246 -14.83754,-31.00296 -33.1405,-31.00298 z"
       id="path6703-8-1"
       inkscape:connector-curvature="0" />
    <path
       style="opacity:1;fill:#e6e6e6;fill-opacity:1;stroke:#000000;stroke-width:0.072;stroke-miterlimit:4;stroke-dasharray:none;stroke-opacity:0"
       d="m 116.59251,203.66182 c -11.9441,0.006 -22.952376,6.02929 -28.782136,15.74898 -4.05734,-2.49277 -8.81148,-3.82448 -13.674183,-3.83036 -13.419352,0.0135 -24.406659,9.92698 -24.827794,22.40131 h -0.761872 c -0.0369,-0.002 -0.07379,-0.004 -0.110685,-0.006 -0.0522,0.002 -0.104386,0.004 -0.156568,0.006 h -0.458805 v 0.016 c -13.571583,0.33046 -24.40198,11.31391 -24.409712,24.75465 -3.2e-5,13.68361 11.204103,24.77637 25.025085,24.77632 0.298529,-0.005 0.596937,-0.0156 0.895088,-0.0314 h 98.835732 c 0.088,0.005 0.176,0.009 0.26403,0.0131 13.82093,5e-5 26.59601,-11.61087 26.59605,-25.29443 -0.008,-13.32549 -12.23191,-23.73944 -25.68221,-24.22599 0.15544,-1.18235 0.23711,-2.37211 0.24458,-3.56328 -3e-5,-16.99101 -14.7731,-30.76493 -32.9966,-30.76495 z"
       id="path6703-8"
       inkscape:connector-curvature="0" />
  </g>
</svg>
